<svg width="77" height="33" viewBox="0 0 77 33" fill="none" xmlns="http://www.w3.org/2000/svg">
<g id="siemens-logo">
<path id="Vector" fill-rule="evenodd" clip-rule="evenodd" d="M0.498208 22.1163V19.8323C1.79925 20.2415 2.9505 20.4461 3.95195 20.4461C5.33462 20.4461 6.02607 20.0809 6.02607 19.351C6.02607 19.0789 5.92544 18.8503 5.72374 18.6651C5.51748 18.4688 4.9892 18.1965 4.14028 17.8477C2.61709 17.2219 1.62384 16.6882 1.16184 16.2468C0.563036 15.6641 0.263672 14.9293 0.263672 14.0414C0.263672 12.8979 0.699912 12.0263 1.57178 11.4274C2.434 10.8337 3.55675 10.5372 4.94178 10.5372C5.70489 10.5372 6.8094 10.6775 8.25408 10.9586V13.1557C7.17914 12.7267 6.18134 12.5126 5.25946 12.5126C3.9613 12.5126 3.31226 12.8687 3.31226 13.5826C3.31226 13.8495 3.44298 14.0671 3.7048 14.2359C3.92254 14.3724 4.52248 14.6608 5.50334 15.102C6.91565 15.7287 7.85584 16.2735 8.32431 16.7369C8.88017 17.2865 9.15864 17.9978 9.15864 18.8696C9.15864 20.1226 8.61318 21.0785 7.52304 21.7371C6.63984 22.2712 5.4946 22.5371 4.08799 22.5371C2.90011 22.5371 1.70326 22.3973 0.498208 22.1163ZM10.9845 10.7382H14.2175V22.3034H10.9845V10.7382ZM17.1825 22.3034V10.7382H25.4745V12.83H20.2985V15.4415H24.8039V17.3495H20.2985V20.094H25.6079V22.3034H17.1825ZM27.7184 22.3034V10.7382H31.9102L34.8225 18.1279L37.8078 10.7382H41.7893V22.3034H38.7239V14.115L35.3295 22.4208H33.3254L29.9963 14.115V22.3034H27.7184ZM44.7549 22.3034V10.7382H53.0467V12.83H47.8712V15.4415H52.3765V17.3495H47.8712V20.094H53.181V22.3034H44.7549ZM55.3083 22.3034V10.7382H59.0554L63.0308 18.4802V10.7382H65.308V22.3034H61.6673L57.5864 14.4572V22.3034H55.3083ZM67.6032 22.1163V19.8323C68.8933 20.2415 70.0444 20.4461 71.0576 20.4461C72.4404 20.4461 73.131 20.0809 73.131 19.351C73.131 19.0789 73.0331 18.8503 72.8381 18.6651C72.6308 18.4688 72.1003 18.1965 71.2463 17.8477C69.7277 17.2271 68.7334 16.6936 68.2672 16.2468C67.6687 15.6693 67.3699 14.9318 67.3699 14.0335C67.3699 12.8949 67.805 12.0263 68.6778 11.4273C69.5387 10.8337 70.6628 10.5371 72.048 10.5371C72.8267 10.5371 73.8359 10.6607 75.0735 10.9089L75.3594 10.9585V13.1556C74.2843 12.7266 73.2836 12.5125 72.3568 12.5125C71.0635 12.5125 70.4185 12.8687 70.4185 13.5826C70.4185 13.8494 70.5485 14.067 70.8097 14.2358C71.0172 14.3671 71.6195 14.6556 72.6168 15.1019C74.0184 15.7287 74.9566 16.2734 75.4292 16.7368C75.9859 17.2865 76.2637 17.9977 76.2637 18.8695C76.2637 20.1226 75.7214 21.0784 74.6368 21.737C73.7485 22.2711 72.6003 22.537 71.1939 22.537C70.0048 22.537 68.8074 22.3973 67.6032 22.1163Z" fill="#000028"/>
</g>
</svg>
